<?xml version="1.0" standalone="no"?>
<!DOCTYPE svg PUBLIC "-//W3C//DTD SVG 20010904//EN"
 "http://www.w3.org/TR/2001/REC-SVG-20010904/DTD/svg10.dtd">
<svg version="1.0" xmlns="http://www.w3.org/2000/svg"
 width="500.000000pt" height="500.000000pt" viewBox="0 0 500.000000 500.000000"
 preserveAspectRatio="xMidYMid meet">
<metadata>
Created by potrace 1.14, written by Peter Selinger 2001-2017
</metadata>
<g transform="translate(0.000000,500.000000) scale(0.100000,-0.100000)"
fill="#000000" stroke="none">
<path d="M1524 4989 c-23 -4 -61 -13 -85 -20 -24 -7 -47 -12 -51 -11 -5 1 -8
-2 -8 -8 0 -5 -7 -10 -15 -10 -9 0 -35 -9 -57 -20 -23 -11 -48 -20 -55 -20 -7
0 -13 -4 -13 -10 0 -5 -6 -10 -14 -10 -23 0 -247 -125 -254 -142 -2 -4 -10 -8
-17 -8 -7 0 -15 -3 -17 -7 -1 -5 -25 -26 -53 -47 -71 -56 -205 -194 -205 -212
0 -8 -4 -14 -8 -14 -13 0 -54 -89 -68 -146 -9 -42 -9 -58 3 -94 21 -62 37 -81
138 -162 50 -40 119 -96 155 -124 36 -29 85 -70 110 -93 45 -40 45 -48 -2 -55
-7 -1 -19 -5 -25 -9 -7 -5 -13 -5 -13 -1 0 3 -7 1 -15 -6 -8 -7 -15 -9 -15 -5
0 4 -7 2 -15 -5 -8 -7 -15 -10 -15 -7 0 8 -168 -81 -215 -114 -61 -42 -106
-89 -146 -149 -35 -55 -43 -69 -72 -145 -9 -22 -37 -89 -63 -150 -64 -150
-114 -310 -106 -338 1 -4 -8 -11 -21 -16 -33 -13 -75 -65 -86 -109 -11 -42 -8
-115 7 -153 8 -21 6 -32 -9 -55 -34 -49 -68 -121 -62 -128 4 -3 2 -6 -4 -6
-12 0 -37 -78 -48 -152 -2 -15 -6 -35 -9 -45 -2 -10 -7 -43 -11 -73 -3 -30 -7
-66 -10 -80 -2 -14 -7 -52 -10 -85 -4 -33 -8 -73 -10 -90 -2 -16 -7 -68 -10
-115 -4 -47 -10 -94 -12 -105 -9 -35 -10 -813 -1 -867 13 -85 24 -140 28 -145
2 -2 4 -7 5 -13 1 -5 3 -11 5 -12 1 -2 3 -11 5 -20 5 -29 56 -182 66 -200 5
-10 9 -27 9 -38 0 -11 4 -28 10 -38 14 -26 55 -146 52 -154 -1 -5 3 -8 8 -8 6
0 10 -6 10 -13 0 -8 10 -38 23 -68 l22 -55 2145 2 c1180 0 2150 2 2157 3 8 1
8 7 0 26 -7 14 -15 25 -19 25 -5 0 -8 5 -8 11 0 23 -86 118 -136 151 l-50 33
1 57 c0 56 3 60 52 110 28 29 70 82 92 117 23 35 69 95 104 131 86 94 102 115
141 195 34 68 83 219 91 280 9 68 17 104 40 175 31 94 55 186 60 225 2 17 6
53 10 80 4 28 6 100 5 160 -3 199 -3 249 3 360 3 61 2 134 -4 165 -14 75 -49
189 -60 196 -5 3 -9 14 -9 24 0 40 -91 188 -160 260 -22 23 -40 43 -40 45 0 9
-101 167 -126 196 -48 57 -177 183 -219 214 -22 17 -46 36 -53 43 -7 6 -17 12
-21 12 -4 0 -18 9 -31 20 -13 11 -29 20 -36 20 -7 0 -14 4 -16 8 -1 5 -41 29
-88 54 -47 24 -103 55 -125 68 -110 64 -244 123 -303 135 -12 2 -26 6 -31 10
-5 3 -36 8 -68 11 -32 3 -74 6 -93 8 -19 2 -37 5 -40 6 -3 1 -9 2 -14 1 -6 -1
-28 4 -50 12 -168 60 -292 73 -379 41 -23 -9 -51 -15 -62 -14 -96 9 -189 1
-285 -27 -30 -9 -61 -16 -67 -16 -7 0 -13 -4 -13 -7 0 -4 -12 -10 -27 -13 -16
-3 -77 -33 -136 -66 -59 -34 -118 -63 -130 -65 -65 -13 -225 -83 -317 -139
-146 -88 -362 -290 -414 -387 -10 -19 -35 -57 -55 -85 -53 -72 -92 -135 -85
-135 4 0 1 -6 -5 -14 -14 -16 -52 -126 -44 -126 3 0 1 -6 -5 -13 -6 -7 -13
-24 -15 -37 -2 -14 -15 -50 -29 -80 -14 -30 -33 -77 -42 -105 -9 -27 -19 -57
-23 -65 -3 -8 -7 -20 -8 -26 -7 -33 -74 -156 -75 -139 -1 11 -3 31 -4 45 -3
26 12 70 25 70 13 0 69 128 73 168 2 21 -3 58 -11 81 -11 32 -12 50 -4 74 6
18 13 48 15 67 5 35 8 51 21 105 15 58 54 121 143 226 79 94 142 196 142 229
0 6 14 13 30 17 17 3 30 10 30 16 0 6 3 8 6 4 7 -7 200 73 263 110 81 46 306
187 319 199 6 7 21 16 32 19 11 3 20 10 20 15 0 5 6 10 13 12 22 6 177 110
177 119 0 5 6 9 13 9 19 0 178 168 227 240 24 36 53 74 63 85 27 28 59 104 59
141 0 93 -95 185 -217 209 -38 8 -161 8 -197 1 -16 -3 -39 -8 -53 -10 -14 -3
-33 -7 -43 -10 -9 -3 -28 -7 -42 -10 -14 -2 -32 -7 -41 -11 -15 -6 -31 9 -89
81 -30 37 -78 109 -78 118 0 5 -5 12 -10 15 -8 5 -114 215 -117 231 0 3 -15
32 -33 65 -23 43 -47 70 -83 94 -47 32 -56 34 -137 36 -48 0 -106 -2 -128 -6z"/>
</g>
</svg>
